<svg height="512pt" viewBox="0 0 512 512" width="512pt" xmlns="http://www.w3.org/2000/svg"><path d="m512 15v121c0 8.398438-6.597656 15-15 15h-45v105c0 8.398438-6.597656 15-15 15s-15-6.601562-15-15v-45h-151v45c0 8.398438-6.597656 15-15 15h-45v45c0 8.398438-6.597656 15-15 15s-15-6.601562-15-15v-60c0-8.402344 6.597656-15 15-15h45v-45c0-8.402344 6.597656-15 15-15h45v-45c0-8.402344 6.597656-15 15-15s15 6.597656 15 15v45h91v-30h-46c-8.402344 0-15-6.601562-15-15 0-8.402344 6.597656-15 15-15h106v-91h-452v286c0 8.398438-6.597656 15-15 15s-15-6.601562-15-15v-301c0-8.402344 6.597656-15 15-15h482c8.402344 0 15 6.597656 15 15zm0 0" fill="#64e1dc"/><path d="m512 196v301c0 8.398438-6.597656 15-15 15h-482c-8.402344 0-15-6.601562-15-15v-121c0-8.402344 6.597656-15 15-15s15 6.597656 15 15v106h452v-91h-30v46c0 8.398438-6.597656 15-15 15h-121c-8.402344 0-15-6.601562-15-15 0-8.402344 6.597656-15 15-15h106v-91h-31v45c0 8.398438-6.597656 15-15 15h-105v46c0 8.398438-6.597656 15-15 15h-60c-8.402344 0-15-6.601562-15-15v-46h-45c-8.402344 0-15-6.601562-15-15v-45h-31v91h46c8.402344 0 15 6.597656 15 15 0 8.398438-6.597656 15-15 15h-61c-8.402344 0-15-6.601562-15-15v-362c0-8.402344 6.597656-15 15-15h362c8.402344 0 15 6.597656 15 15 0 8.398438-6.597656 15-15 15h-166v46c0 8.398438-6.597656 15-15 15s-15-6.601562-15-15v-46h-90v91h30v-45c0-8.402344 6.597656-15 15-15s15 6.597656 15 15v60c0 8.398438-6.597656 15-15 15h-60c-8.402344 0-15-6.601562-15-15v-106h-31v211h31v-45c0-8.402344 6.597656-15 15-15s15 6.597656 15 15v105h45c8.402344 0 15 6.597656 15 15v46h30v-106c0-8.402344 6.597656-15 15-15s15 6.597656 15 15v45h90v-90h-30v45c0 8.398438-6.597656 15-15 15s-15-6.601562-15-15v-60c0-8.402344 6.597656-15 15-15h60c8.402344 0 15 6.597656 15 15v45h46c8.402344 0 15 6.597656 15 15v45h30v-165c0-8.402344 6.597656-15 15-15s15 6.597656 15 15zm0 0" fill="#64e1dc"/><g fill="#00c8c8"><path d="m256 151v-91h181c8.402344 0 15 6.597656 15 15 0 8.398438-6.597656 15-15 15h-166v46c0 8.398438-6.597656 15-15 15zm0 0"/><path d="m512 15v121c0 8.398438-6.597656 15-15 15h-45v105c0 8.398438-6.597656 15-15 15s-15-6.601562-15-15v-45h-151v45c0 8.398438-6.597656 15-15 15v-90h45v-45c0-8.402344 6.597656-15 15-15s15 6.597656 15 15v45h91v-30h-46c-8.402344 0-15-6.601562-15-15 0-8.402344 6.597656-15 15-15h106v-91h-226v-30h241c8.402344 0 15 6.597656 15 15zm0 0"/><path d="m512 196v301c0 8.398438-6.597656 15-15 15h-241v-30h226v-91h-30v46c0 8.398438-6.597656 15-15 15h-121c-8.402344 0-15-6.601562-15-15 0-8.402344 6.597656-15 15-15h106v-91h-31v45c0 8.398438-6.597656 15-15 15h-105v46c0 8.398438-6.597656 15-15 15v-151c8.402344 0 15 6.597656 15 15v45h90v-90h-30v45c0 8.398438-6.597656 15-15 15s-15-6.601562-15-15v-60c0-8.402344 6.597656-15 15-15h60c8.402344 0 15 6.597656 15 15v45h46c8.402344 0 15 6.597656 15 15v45h30v-165c0-8.402344 6.597656-15 15-15s15 6.597656 15 15zm0 0"/></g></svg>